<?xml version="1.0" encoding="UTF-8" standalone="no"?>
<svg
   xmlns:dc="http://purl.org/dc/elements/1.1/"
   xmlns:cc="http://creativecommons.org/ns#"
   xmlns:rdf="http://www.w3.org/1999/02/22-rdf-syntax-ns#"
   xmlns:svg="http://www.w3.org/2000/svg"
   xmlns="http://www.w3.org/2000/svg"
   xmlns:sodipodi="http://sodipodi.sourceforge.net/DTD/sodipodi-0.dtd"
   xmlns:inkscape="http://www.inkscape.org/namespaces/inkscape"
   inkscape:version="1.0 (4035a4fb49, 2020-05-01)"
   sodipodi:docname="jwh-inverted.svg"
   xml:space="preserve"
   enable-background="new 0 0 500 500"
   viewBox="0 0 500 500"
   height="500px"
   width="500px"
   y="0px"
   x="0px"
   id="Layer_1"
   version="1.1"><metadata
   id="metadata909"><rdf:RDF><cc:Work
       rdf:about=""><dc:format>image/svg+xml</dc:format><dc:type
         rdf:resource="http://purl.org/dc/dcmitype/StillImage" /><dc:title></dc:title></cc:Work></rdf:RDF></metadata><defs
   id="defs907" /><sodipodi:namedview
   inkscape:current-layer="Layer_1"
   inkscape:window-maximized="0"
   inkscape:window-y="0"
   inkscape:window-x="0"
   inkscape:cy="240.57971"
   inkscape:cx="278.98551"
   inkscape:zoom="1.38"
   showgrid="false"
   id="namedview905"
   inkscape:window-height="1124"
   inkscape:window-width="2097"
   inkscape:pageshadow="2"
   inkscape:pageopacity="0"
   guidetolerance="10"
   gridtolerance="10"
   objecttolerance="10"
   borderopacity="1"
   bordercolor="#666666"
   pagecolor="#ffffff" />
<path
   d="M 0 0 L 0 462.50586 C 7.0344867 445.02469 17.153892 429.28378 25.841797 414.79883 C 47.511512 382.09355 69.191608 349.38778 90.861328 316.68359 C 100.15039 306.08354 109.43945 295.46527 118.72852 284.86523 C 119.17284 276.02489 119.61672 267.19385 120.05664 258.35352 C 131.89179 184.04101 112.07394 103.67133 88.208984 56.830078 C 79.75138 40.231623 69.347582 12.402173 45.742188 15.732422 C 29.133834 27.888712 27.669714 52.101805 12.570312 64.787109 C 11.686059 64.343882 10.802221 63.902211 9.9179688 63.458984 C 8.871846 36.3049 20.824525 10.446598 37.943359 0 L 0 0 z M 71.166016 0 C 76.850909 3.3323883 82.587063 8.4662751 88.207031 15.732422 C 127.55412 66.597905 153.40671 168.50085 139.95703 263.6582 C 151.84936 255.97047 161.35352 248.21124 178.44141 245.09766 C 173.79247 196.15355 168.03938 119.85184 179.76562 74.066406 C 180.64989 73.622096 181.53762 73.182611 182.42188 72.738281 C 190.36917 72.905451 186.29669 73.979594 190.66406 76.714844 C 190.10095 155.84345 189.60624 243.70651 196.81445 316.68164 C 200.35476 352.54451 205.5495 398.72666 216.92383 404.18945 C 217.36815 403.3096 217.80762 402.4199 218.25195 401.53125 C 236.58371 381.87971 250.53387 288.02992 262.03906 280.87891 C 265.13505 279.99906 268.23213 279.12095 271.32812 278.24219 C 274.03697 280.18667 274.75983 280.5985 276.63281 283.54492 C 297.3303 315.46714 283.80206 351.38391 324.40625 364.41016 C 370.6217 348.59366 387.52925 305.23638 386.77148 242.44336 C 363.83148 242.96798 309.25846 249.33944 296.53906 237.13477 C 297.41782 235.81058 298.30666 234.48765 299.19531 233.16016 C 327.94236 230.06747 356.69841 226.97549 385.43555 223.88281 C 377.20232 153.7617 347.32995 106.82028 308.48438 67.433594 L 308.48438 66.109375 C 309.80305 64.785189 305.48391 65.338697 306.8125 64.015625 C 358.84379 87.436251 385.60297 151.54538 400.95312 221.22656 C 417.31403 219.90237 437.52765 218.57418 453.89844 217.25 C 446.37643 144.83967 439.26599 72.413834 431.83398 0 L 71.166016 0 z M 439.93945 0 C 445.40403 24.851277 448.70961 51.694584 453.53906 78.042969 C 459.28341 124.43989 463.9363 170.84868 469.68945 217.25 C 479.9839 218.23004 490.40864 219.94895 500 222.80859 L 500 0 L 439.93945 0 z M 474.90039 239.70703 C 473.70197 239.72046 472.47995 239.74871 471.23633 239.79102 C 474.26304 282.03173 479.51502 370.64112 499.5625 396.23828 C 499.7307 396.15833 499.84261 396.09464 500 396.01758 L 500 242.45312 C 493.03564 240.4742 484.7281 239.59688 474.90039 239.70703 z M 455.45703 239.79297 C 438.64631 240.2329 419.08415 240.67726 402.27344 241.11719 C 403.75159 296.70639 389.48308 338.78053 359.1875 362.67188 C 316.17362 396.59026 285.82484 375.61884 273.14062 331.26758 C 272.70071 331.26758 269.11181 316.20898 268.67188 316.20898 C 262.21594 347.71657 246.16187 428.09765 211.61328 430.70312 C 182.94982 410.33888 187.56922 349.37042 181.0957 307.41016 C 179.76712 291.04927 178.44272 274.70671 177.11523 258.35352 C 176.23097 259.24216 175.34715 260.12125 174.46289 261 C 163.15457 265.90849 142.93222 282.40209 137.30664 292.82617 C 134.64949 309.17056 131.99786 325.52375 129.3418 341.87695 C 117.2966 386.11885 89.783941 464.60319 48.03125 500 L 500 500 L 500 403.80273 C 496.6863 403.4909 492.60561 403.17886 490.41406 402.86133 C 467.56094 390.90851 456.72293 278.55936 455.45703 239.79297 z M 110.76562 323.31445 C 85.290539 369.10866 14.586449 440.57255 9.9199219 499.65039 C 62.659499 477.68483 87.711183 412.45908 104.13477 353.80469 C 106.52687 345.25361 112.97736 332.0052 110.76562 323.31445 z "
   style="fill:#000000"
   id="rect913" />
<g
   id="g874">
</g>
<g
   id="g876">
</g>
<g
   id="g878">
</g>
<g
   id="g880">
</g>
<g
   id="g882">
</g>
<g
   id="g884">
</g>
<g
   id="g886">
</g>
<g
   id="g888">
</g>
<g
   id="g890">
</g>
<g
   id="g892">
</g>
<g
   id="g894">
</g>
<g
   id="g896">
</g>
<g
   id="g898">
</g>
<g
   id="g900">
</g>
<g
   id="g902">
</g>
</svg>
