<svg version="1" xmlns="http://www.w3.org/2000/svg" width="933.333" height="933.333" viewBox="0 0 700.000000 700.000000"><path d="M0 350v350h700V0H0v350zm188.7-135.5c-.2 106.4-.5 193.7-.9 194-.3.3-22.9 10.2-50.3 21.9l-49.9 21.4-2.7 7.2c-2 5.1-2.5 7.8-1.9 9.3.4 1.2 5.9 12.5 12 25.2 6.2 12.6 13.6 27.9 16.5 34 2.9 6 8.6 18 12.7 26.5 4.2 8.5 10 20.7 13.1 27 5.7 11.9 14.9 31.1 26.9 56 13.7 28.4 18.8 39.2 18.8 39.8 0 .4-36.1.7-80.2.7H22.5V21H189l-.3 193.5zM299.5 191v169.9l-12 5.2c-6.6 2.8-13.4 5.7-15 6.4-3 1.3-3.1 1.3-3.3-1.3-.1-1.5-.4-3.8-.7-5.2-.7-3.4-3.2-17.5-4-22.5-.7-4.6-.8-5.7-2.9-18-.9-5-1.8-10.8-2.1-13-.3-2.2-1-6.3-1.5-9-1.1-5.8-2-10.9-2.5-14.5-.2-1.4-1-6.6-1.9-11.5-.8-5-3.1-18.5-5-30-1.9-11.6-3.7-22.6-4.1-24.5-.7-4.6-4.2-25.4-5-30.5-.4-2.2-1.3-7.8-2.1-12.5-1.9-10.8-8.3-49.2-12.8-77-2-11.8-4-24-4.6-27-.9-4.7-6.7-39.4-8.5-51.3l-.6-3.7h88.6v170zM410 25.2c.1 7.8.1 272.1 0 280.3v8l-11.8 5c-6.4 2.7-14.6 6.2-18 7.8-3.5 1.6-6.6 2.7-6.8 2.4-.2-.2-2.7-14.1-5.4-30.8-2.8-16.7-5.3-31.5-5.5-32.9-2.7-16.5-9.7-58.2-10.1-60.5-.3-1.7-.7-4.1-.9-5.5-.2-1.4-3.8-23-7.9-48-4.2-25-7.9-47.1-8.2-49-.3-1.9-.9-5.8-1.4-8.5-.5-2.8-1.2-6.6-1.5-8.5-.3-1.9-.9-6.4-1.5-10-.5-3.6-1.2-7.6-1.5-9-.5-2.5-1.6-9.4-2-12-.1-.8-.4-2.9-.8-4.5-.4-1.7-.9-5-1.2-7.5-.3-2.5-1-6.5-1.5-9s-1.1-6.2-1.4-8.3l-.5-3.7H410v4.2zm115 117.5l-.1 121.8-22.5 9.5c-12.4 5.2-23.8 10.1-25.2 10.7-15.5 7.2-44.2 18.8-44.3 17.9-.3-3.6-.4-279.3-.1-280.4.3-.9 10.5-1.2 46.3-1.2H525v121.7zm154 206.6v328.2H546V477.8c0-132.2.3-199.8 1-199.8.5 0 3.9-1.4 7.3-3 3.5-1.6 6.7-3 7-3 .4 0 3-1.1 5.9-2.4 2.9-1.3 15.7-6.8 28.3-12.1 12.7-5.4 23.4-10.2 23.9-10.6.8-.7-5.5-17.2-7.4-19.2-.4-.5-3 .1-5.6 1.4-5.4 2.4-54.6 23.6-58.1 25l-2.3.9V21h133v328.3zM211.4 155.8c.3 2.4.7 4.6 1 5 .2.4.7 2.9 1 5.7.4 2.7 2.2 14.2 4.2 25.5 1.9 11.3 3.7 21.8 3.9 23.5.5 3.5 1.5 9.9 2.1 12.9 1.3 6.8 1.7 9.3 1.9 11.1.1 1.1.5 3.6.8 5.5 1 5.3 1.6 8.9 2.7 16.1.5 3.6 1.2 7.2 1.4 8 .3.8.7 3.2 1 5.4.3 2.2 1 6.3 1.5 9.2.6 2.9 1.3 7.4 1.6 10 .4 2.6.8 5.5 1 6.3.2.8.6 2.8.9 4.5.3 1.6 1.2 7.3 2.1 12.5.9 5.2 1.8 11.1 2.1 13 .3 1.9 2.3 14 4.5 26.8 2.1 12.9 3.9 23.9 3.9 24.6 0 1-25.1 12.5-37.7 17.3-1.2.5-1.4-18.9-1.2-123.6.1-68.3.3-124 .4-123.9.2.2.5 2.2.9 4.6zM348.5 307c.3 1.9 1.4 8.7 2.5 15 3 17.4 3.7 15.8-8.8 20.9-5.9 2.5-12.8 5.5-15.4 6.7l-4.8 2.2.1-100.6.1-100.7 12.9 76.5c7 42.1 13.1 78.1 13.4 80zM525 482.8v194.8h-46c-40.6 0-46-.2-46.1-1.6-.1-.8-.2-79.5-.3-174.9l-.1-173.4 7.5-3.5c4.1-1.9 9.8-4.3 12.5-5.4 2.8-1.1 7-2.9 9.5-4 10.2-4.6 61.6-26.6 62.3-26.7.4-.1.7 87.6.7 194.7zM410.1 347.7c0 11.3 0 189.5-.1 197.2 0 5.5-.6 5.1-1.4-.9-.3-2.5-.8-5.6-1.1-7-.3-1.4-.7-4.1-1-6-.3-1.9-.7-4.6-1-6-.7-3.7-5.1-30.2-6-36-.2-1.4-1.1-6.8-2-12-.9-5.2-2.4-14.7-3.5-21-1-6.3-5.3-31.8-9.4-56.7-4.2-24.8-7.6-46.1-7.6-47.2 0-1.2.6-2.1 1.3-2.1.6-.1 7.7-3 15.7-6.5 8-3.5 14.8-6.4 15.3-6.4.4-.1.7 4.7.8 10.6zm-51.5 21.9c.9 4.9 1.7 10 1.9 11.4.2 1.4 1.1 6.8 2 12 .9 5.2 1.8 10.6 2 12 .2 1.4 1.6 9.5 3 18 1.5 8.5 2.8 17.3 3.1 19.5.3 2.2.9 6 1.4 8.5 1.1 5 4.6 26.1 5.5 33 .3 2.5.8 5.2 1 6 .2.8.6 2.8.9 4.5.9 6 1.8 12 2.1 13.5.1.8.6 3.5 1 6s.9 5.4 1.1 6.5c.2 1.1 1.3 7.6 2.4 14.5 2.7 16.8 2.5 15.5 8 48.5 2.7 15.9 5.1 30.6 5.4 32.5.3 1.9 2.2 13.2 4.1 25 2 11.8 3.8 22.6 4 24 .2 1.4.8 4.6 1.3 7.3.5 2.6.7 4.9.3 5-.3.2-19.9.3-43.6.3l-43-.1V374.7l17-7.3c9.3-4 17.1-7.1 17.3-7 .1.2.9 4.3 1.8 9.2zm-59.1 97.8c0 45.4 0 82.4-.2 82.3-.3-.3-.9-3.7-3.8-21.2-1.4-8.3-2.8-16.4-3.1-18-.9-5-10.5-62.8-11-66-.2-1.7-.9-5.3-1.4-8-.5-2.8-1.2-6.6-1.4-8.5-.3-1.9-.8-4.6-1-6-.7-4-3.5-21.3-3.8-23.8-.2-1.6.5-2.7 2.2-3.7 3.4-1.9 21.2-9.4 22.5-9.5.7 0 1 27.5 1 82.4zm-44-48.3c1.3 7.9 2.6 16.2 3 18.4.3 2.2.7 4.7 1 5.5.2.8.6 3.1.9 5 .3 1.9 3 18.3 6 36.5 5.4 32.8 5.8 34.9 7.6 45.5.5 3 1.2 6.8 1.4 8.5.3 1.6 3.3 19.4 6.6 39.5 3.4 20.1 8.5 50.7 11.3 68l5.3 31.6-44.5-.1h-44.6l.2-126.9c.1-69.8.5-127.2 1-127.7.9-.9 41.6-18.7 42.1-18.4.1.1 1.3 6.7 2.7 14.6zm-67.2 114.5c0 55.2-.3 100.7-.5 100.9-.5.5-13.6-26.1-42.3-86-2.9-6.1-9-18.7-13.5-28-19.7-40.6-25-51.8-25-52.7 0-.5 1.7-1.6 3.8-2.5 2-.8 5.5-2.3 7.7-3.3s7.4-3.2 11.5-4.9c4.1-1.8 9.1-3.9 11-4.7 26.4-11.5 46.6-20 46.9-19.7.3.2.4 45.6.4 100.9z"/></svg>