<?xml version="1.0" encoding="UTF-8" standalone="no"?>
<svg
   xmlns:dc="http://purl.org/dc/elements/1.1/"
   xmlns:cc="http://creativecommons.org/ns#"
   xmlns:rdf="http://www.w3.org/1999/02/22-rdf-syntax-ns#"
   xmlns:svg="http://www.w3.org/2000/svg"
   xmlns="http://www.w3.org/2000/svg"
   xmlns:sodipodi="http://sodipodi.sourceforge.net/DTD/sodipodi-0.dtd"
   xmlns:inkscape="http://www.inkscape.org/namespaces/inkscape"
   version="1.1"
   id="Layer_1"
   x="0px"
   y="0px"
   width="182.89062"
   height="316.66763"
   viewBox="213.405 30.236 182.89062 316.66763"
   enable-background="new 213.405 30.236 159.188 346.698"
   xml:space="preserve"
   sodipodi:docname="mobile.svg"
   inkscape:version="1.0 (4035a4fb49, 2020-05-01)"><metadata
   id="metadata52"><rdf:RDF><cc:Work
       rdf:about=""><dc:format>image/svg+xml</dc:format><dc:type
         rdf:resource="http://purl.org/dc/dcmitype/StillImage" /></cc:Work></rdf:RDF></metadata><defs
   id="defs50" /><sodipodi:namedview
   inkscape:document-rotation="0"
   pagecolor="#ffffff"
   bordercolor="#666666"
   borderopacity="1"
   objecttolerance="10"
   gridtolerance="10"
   guidetolerance="10"
   inkscape:pageopacity="0"
   inkscape:pageshadow="2"
   inkscape:window-width="2560"
   inkscape:window-height="1377"
   id="namedview48"
   showgrid="false"
   inkscape:zoom="2.0558631"
   inkscape:cx="145.08571"
   inkscape:cy="171.88861"
   inkscape:window-x="1912"
   inkscape:window-y="-8"
   inkscape:window-maximized="1"
   inkscape:current-layer="Layer_1" />

<path
   sodipodi:nodetypes="cccsscsssccssccssccc"
   id="rect1072"
   style="fill:#000000;fill-rule:evenodd;stroke-width:0.853629"
   d="m 346.91086,30.236546 c -1.24592,0.0048 -2.5217,0.04114 -3.82617,0.109375 l -76.46875,4 C 237.17745,35.885792 213.405,58.995048 213.405,89.611547 V 287.46897 c 0,30.61649 23.77245,53.7238 53.21094,55.26367 l 76.46875,4 c 53.00174,2.77242 53.21094,-28.64718 53.21094,-59.26367 V 89.611547 c 0,-29.659734 -10.7613,-59.522758 -49.38477,-59.375001 z m -3.45703,6.000001 c 36.46631,-0.133987 46.62695,26.944438 46.62695,53.839843 v 179.41797 c 0,27.763 -0.19673,56.25426 -50.23828,53.74023 l -72.19922,-3.62695 C 239.84896,318.2113 217.405,297.25736 217.405,269.49436 V 90.07639 c 0,-27.762999 22.44396,-48.716929 50.23828,-50.113281 l 72.19922,-3.626953 c 1.23162,-0.06188 2.435,-0.09529 3.61133,-0.09961 z" /><path
   sodipodi:nodetypes="cccsccscc"
   d="m 293.05776,327.1872 c 0.23952,-0.007 0.4808,-0.004 0.72584,0.01 l 30.97661,1.62945 c 3.92088,0.20634 6.94507,2.88962 6.78055,6.01503 -0.16449,3.12532 -3.45322,5.47462 -7.37411,5.2683 l -30.97652,-1.62948 c -3.92097,-0.20642 -6.94512,-2.88964 -6.78055,-6.01504 0.15409,-2.93003 3.05556,-5.17818 6.64818,-5.27776 z"
   style="fill:#333333;fill-rule:evenodd;stroke-width:0.826177"
   id="rect1072-0" /></svg>
