<svg xmlns="http://www.w3.org/2000/svg" width="183" height="317" viewBox="213.41 30.24 182.89 316.67"><path d="m346.91 30.24c-1.25 0-2.52 0.04-3.83 0.11l-76.47 4C237.18 35.89 213.41 59 213.41 89.61V287.47c0 30.62 23.77 53.72 53.21 55.26l76.47 4c53 2.77 53.21-28.65 53.21-59.26V89.61c0-29.66-10.76-59.52-49.38-59.38zm-3.46 6c36.47-0.13 46.63 26.94 46.63 53.84v179.42c0 27.76-0.2 56.25-50.24 53.74l-72.2-3.63C239.85 318.21 217.41 297.26 217.41 269.49V90.08c0-27.76 22.44-48.72 50.24-50.11l72.2-3.63c1.23-0.06 2.44-0.1 3.61-0.1z" stroke-width="0.9"/><path d="m293.06 327.19c0.24-0.01 0.48 0 0.73 0.01l30.98 1.63c3.92 0.21 6.95 2.89 6.78 6.02-0.16 3.13-3.45 5.47-7.37 5.27l-30.98-1.63c-3.92-0.21-6.95-2.89-6.78-6.02 0.15-2.93 3.06-5.18 6.65-5.28z" style="fill:#333;stroke-width:0.8"/></svg>