<svg xmlns="http://www.w3.org/2000/svg" width="500" height="388" viewBox="0.64 0 500 388.4"><path d="M214.56 1.81 165.84 57.38c-10.09 0.47-20.73 1.01-32.21 1.64L95.67 21.82c-4.31-4.03-9.44 1.62-5.22 6.09l32.39 31.74c-2.93 0.17-5.69 0.32-8.72 0.5C25.33 65.4 0.64 94.76 0.64 141v140.01c0 36.1 26.84 64.19 79.5 75.91 0 0-17.85 19.53-16.58 26.22 1.04 5.47 12.97 5.69 19.9 3.33 4.63-1.58 28.36-24.81 28.36-24.81 6.04 0.53 12.29 0.91 18.82 1.09 83.48 2.32 115.31 3.32 250.44 6.96 9.96 0.27 19.19 0.19 27.78-0.23 0 0 13.4 13.07 16.06 15.39 4.02 3.49 18.63 5.39 20.42-0.07 2.15-6.53-5.31-19.11-5.31-19.11 42.8-9.22 60.62-34.57 60.62-84.67V141c0-70.59-52.75-91.41-138.7-88.69-66.75 2.11-105.85 1.09-184.34 4.53L221.51 7.03c3.99-4.43-2.37-9.95-6.96-5.22zM362.2 62.03c71.45 0.29 114.69 21.21 114.69 82.93v130.57c0 64.21-31.34 84.87-111.51 82.71C239.36 354.85 209.67 353.92 131.82 351.76 51.66 349.53 10.58 318.66 10.58 275.53V144.96c0-43.13 23.02-70.51 105.83-75.42 116.6-6.91 154.09-4.86 231.13-7.3 5.01-0.16 9.9-0.23 14.66-0.21z" stroke-width="2"/></svg>