<?xml version="1.0" encoding="UTF-8" standalone="no"?>
<svg
   xmlns:dc="http://purl.org/dc/elements/1.1/"
   xmlns:cc="http://creativecommons.org/ns#"
   xmlns:rdf="http://www.w3.org/1999/02/22-rdf-syntax-ns#"
   xmlns:svg="http://www.w3.org/2000/svg"
   xmlns="http://www.w3.org/2000/svg"
   xmlns:sodipodi="http://sodipodi.sourceforge.net/DTD/sodipodi-0.dtd"
   xmlns:inkscape="http://www.inkscape.org/namespaces/inkscape"
   inkscape:version="1.0 (4035a4fb49, 2020-05-01)"
   sodipodi:docname="tv.svg"
   xml:space="preserve"
   enable-background="new 0.644 0 493.713 467.27"
   viewBox="0.644 0 499.99999 388.39948"
   height="388.39948"
   width="500"
   y="0px"
   x="0px"
   id="Layer_1"
   version="1.1"><metadata
   id="metadata26"><rdf:RDF><cc:Work
       rdf:about=""><dc:format>image/svg+xml</dc:format><dc:type
         rdf:resource="http://purl.org/dc/dcmitype/StillImage" /><dc:title></dc:title></cc:Work></rdf:RDF></metadata><defs
   id="defs24" /><sodipodi:namedview
   inkscape:showpageshadow="false"
   borderlayer="false"
   showborder="true"
   inkscape:guide-bbox="true"
   showguides="true"
   inkscape:lockguides="true"
   inkscape:current-layer="Layer_1"
   inkscape:window-maximized="1"
   inkscape:window-y="-8"
   inkscape:window-x="1912"
   inkscape:cy="181.7055"
   inkscape:cx="243.68942"
   inkscape:zoom="1.3468124"
   showgrid="false"
   id="namedview22"
   inkscape:window-height="1377"
   inkscape:window-width="2560"
   inkscape:pageshadow="2"
   inkscape:pageopacity="0"
   guidetolerance="10"
   gridtolerance="10"
   objecttolerance="10"
   borderopacity="1"
   bordercolor="#666666"
   pagecolor="#ffffff" />

<path
   sodipodi:nodetypes="cccccccsscccccsccccssscccssssssssss"
   d="M 214.55611,1.8135402 165.84127,57.381899 c -10.08502,0.474996 -20.72816,1.009279 -32.21289,1.642579 L 95.671344,21.815493 c -4.311558,-4.026322 -9.435924,1.624151 -5.21875,6.087891 l 32.388676,31.736328 c -2.93365,0.16849 -5.68911,0.318459 -8.72071,0.498047 C 25.334044,65.397033 0.644,94.757586 0.644,141.00299 v 140.00782 c 0,36.099 26.839103,64.1859 79.5,75.91015 L 58.903766,388.39948 H 82.17525 l 29.64844,-26.74024 c 6.04164,0.52763 12.29458,0.90663 18.82031,1.08789 83.47858,2.31885 115.30786,3.31797 250.43555,6.95703 9.96203,0.26829 19.19055,0.1912 27.77539,-0.23242 l 19.60351,18.92774 h 20.88086 l -9.31054,-22.71875 c 42.7985,-9.21652 60.61523,-34.57409 60.61523,-84.66992 V 141.00299 c 0,-70.593331 -52.74738,-91.407503 -138.69531,-88.693356 -66.74855,2.107844 -105.85173,1.089581 -184.3418,4.52539 L 221.51314,7.0322902 c 3.99272,-4.4319258 -2.36663,-9.9490371 -6.95703,-5.21875 z M 362.20064,62.026431 c 71.45115,0.287989 114.68555,21.208235 114.68555,82.929689 v 130.57226 c 0,64.21427 -31.34083,84.8738 -111.50781,82.71485 C 239.3566,354.84941 209.67493,353.92143 131.82173,351.75885 51.656599,349.53202 10.5815,318.65743 10.5815,275.52838 V 144.95612 c 0,-43.12904 23.02468,-70.513118 105.82812,-75.417971 116.59839,-6.906714 154.08668,-4.863959 231.12891,-7.296875 5.00976,-0.158172 9.89868,-0.234039 14.66211,-0.214843 z"
   style="fill:#000000;fill-opacity:1;stroke-width:1.65625"
   id="rect1025" /></svg>
