<?xml version="1.0" encoding="UTF-8" standalone="no"?>
<svg
   xmlns:dc="http://purl.org/dc/elements/1.1/"
   xmlns:cc="http://creativecommons.org/ns#"
   xmlns:rdf="http://www.w3.org/1999/02/22-rdf-syntax-ns#"
   xmlns:svg="http://www.w3.org/2000/svg"
   xmlns="http://www.w3.org/2000/svg"
   xmlns:sodipodi="http://sodipodi.sourceforge.net/DTD/sodipodi-0.dtd"
   xmlns:inkscape="http://www.inkscape.org/namespaces/inkscape"
   inkscape:version="1.0 (4035a4fb49, 2020-05-01)"
   sodipodi:docname="pulse-inverted.svg"
   version="1.1"
   viewBox="0 0 500 500"
   height="500"
   width="500"
   id="Layer_1">
  <metadata
     id="metadata9">
    <rdf:RDF>
      <cc:Work
         rdf:about="">
        <dc:format>image/svg+xml</dc:format>
        <dc:type
           rdf:resource="http://purl.org/dc/dcmitype/StillImage" />
        <dc:title></dc:title>
      </cc:Work>
    </rdf:RDF>
  </metadata>
  <defs
     id="defs7" />
  <sodipodi:namedview
     inkscape:current-layer="Layer_1"
     inkscape:window-maximized="0"
     inkscape:window-y="69"
     inkscape:window-x="334"
     inkscape:cy="250"
     inkscape:cx="250"
     inkscape:zoom="2.016"
     inkscape:snap-page="true"
     showgrid="false"
     id="namedview5"
     inkscape:window-height="1323"
     inkscape:window-width="2466"
     inkscape:pageshadow="2"
     inkscape:pageopacity="0"
     guidetolerance="10"
     gridtolerance="10"
     objecttolerance="10"
     borderopacity="1"
     bordercolor="#666666"
     pagecolor="#ffffff" />
  <path
     id="path859"
     d="M 499.99999,500 H 398.72067 V 196.16205 l 56.82303,-24.30704 -6.60981,-15.13859 -50.21322,21.53518 V 0 h 101.27932 z"
     style="stroke-width:1.0661" />
  <path
     id="path857"
     d="M 0,0 H 126.75905 L 126.43922,295.20256 49.573561,328.14499 45.415778,339.23241 122.9211,500 H 0 Z"
     style="stroke-width:1.0661" />
  <path
     id="path855"
     d="M 312.36673,215.45842 V 0 h 70.36247 v 185.28785 z"
     style="stroke-width:1.0661" />
  <path
     id="path853"
     d="M 312.36673,233.36887 382.7292,203.19829 V 500 h -70.36247 z"
     style="stroke-width:1.0661" />
  <path
     id="path851"
     d="M 228.14498,269.6162 254.79743,258.10235 294.88272,500 h -66.73774 z"
     style="stroke-width:1.0661" />
  <path
     id="path849"
     d="M 175.58634,291.89765 210.34114,500 H 142.5373 l 0.21322,-194.02985 z"
     style="stroke-width:1.0661" />
  <path
     id="path847"
     d="m 172.81449,275.26652 -29.95736,12.89979 0.21322,-191.044776 z"
     style="stroke-width:1.0661" />
  <path
     id="path845"
     d="M 211.08741,276.65245 V 405.65032 L 190.93816,285.28785 Z"
     style="stroke-width:1.0661" />
  <path
     id="path843"
     d="M 188.27291,268.65672 143.49679,0 h 67.59062 v 258.84861 z"
     style="stroke-width:1.0661" />
  <path
     id="path841"
     d="m 252.2388,241.47122 -24.09382,10.23454 V 96.908314 Z"
     style="stroke-width:1.0661" />
  <path
     id="path839"
     d="M 295.30916,240.40512 V 405.4371 L 269.61619,251.38593 Z"
     style="stroke-width:1.0661" />
  <path
     id="path837"
     d="M 267.05756,234.7548 228.14498,0 h 67.16418 v 222.60128 z"
     style="stroke-width:1.0661" />
  <path
     id="path2"
     d="M 126.226,468.97655 63.859275,339.87207 126.33261,313.11301 Z"
     style="stroke-width:1.0661" />
</svg>
