<?xml version="1.0" encoding="utf-8"?>
<!-- Generator: Adobe Illustrator 16.0.0, SVG Export Plug-In . SVG Version: 6.00 Build 0)  -->
<!DOCTYPE svg PUBLIC "-//W3C//DTD SVG 1.1//EN" "http://www.w3.org/Graphics/SVG/1.1/DTD/svg11.dtd">
<svg version="1.1" id="Layer_1" xmlns="http://www.w3.org/2000/svg" xmlns:xlink="http://www.w3.org/1999/xlink" x="0px" y="0px"
	 width="1400px" height="980px" viewBox="0 0 1400 980" enable-background="new 0 0 1400 980" xml:space="preserve">
<path opacity="0.15" fill="#AFAFAF" enable-background="new    " d="M147,103c0,16.569-13.431,30-30,30s-30-13.431-30-30
	s13.431-30,30-30S147,86.431,147,103"/>
<path opacity="0.15" fill="#AFAFAF" enable-background="new    " d="M97,661c0,16.569-13.431,30-30,30s-30-13.431-30-30
	s13.431-30,30-30S97,644.431,97,661"/>
<path opacity="0.15" fill="#AFAFAF" enable-background="new    " d="M783,103c0,16.569-13.431,30-30,30s-30-13.431-30-30
	s13.431-30,30-30S783,86.431,783,103"/>
<path opacity="0.15" fill="#AFAFAF" enable-background="new    " d="M1003.35,919.305c0,16.569-13.431,30-30,30
	c-16.567,0-30-13.431-30-30c0-16.567,13.433-30,30-30C989.919,889.305,1003.35,902.736,1003.35,919.305"/>
<path opacity="0.15" fill="#AFAFAF" enable-background="new    " d="M1030.855,241c0,16.569-13.431,30-30,30
	c-16.568,0-30-13.431-30-30s13.432-30,30-30C1017.425,211,1030.855,224.431,1030.855,241"/>
<path opacity="0.15" fill="#AFAFAF" enable-background="new    " d="M583.547,672.155c0,16.568-13.431,30-30,30
	c-16.568,0-30-13.432-30-30s13.432-30,30-30C570.116,642.155,583.547,655.587,583.547,672.155"/>
<path opacity="0.15" fill="#AFAFAF" enable-background="new    " d="M613.547,328.213c0,16.569-13.431,30-30,30
	c-16.568,0-30-13.431-30-30c0-16.569,13.432-30,30-30C600.116,298.213,613.547,311.645,613.547,328.213"/>
<path opacity="0.15" fill="#D6D6D6" enable-background="new    " d="M873.229,177c0,8.963-7.266,16.229-16.229,16.229
	s-16.229-7.266-16.229-16.229s7.266-16.229,16.229-16.229S873.229,168.037,873.229,177"/>
<path opacity="0.15" fill="#D6D6D6" enable-background="new    " d="M1159.09,227.08c0,8.963-7.266,16.229-16.229,16.229
	s-16.229-7.266-16.229-16.229s7.267-16.229,16.229-16.229S1159.09,218.117,1159.09,227.08"/>
<path opacity="0.15" fill="#D6D6D6" enable-background="new    " d="M815.457,668.64c0,8.964-7.266,16.229-16.229,16.229
	c-8.963,0-16.228-7.266-16.228-16.229c0-8.963,7.266-16.229,16.229-16.229C808.192,652.411,815.457,659.677,815.457,668.64"/>
<path opacity="0.15" fill="#D6D6D6" enable-background="new    " d="M427,626.277c0,8.963-7.266,16.229-16.229,16.229
	s-16.229-7.267-16.229-16.229s7.266-16.229,16.229-16.229C419.734,610.049,427,617.314,427,626.277"/>
<path opacity="0.15" fill="#D6D6D6" enable-background="new    " d="M364.457,358.213c0,8.963-7.266,16.229-16.229,16.229
	c-8.962,0-16.228-7.266-16.228-16.229s7.266-16.229,16.228-16.229C357.191,341.984,364.457,349.25,364.457,358.213"/>
<path opacity="0.15" fill="#919191" enable-background="new    " d="M1248.871,802c0,16.569-13.432,30-30,30s-30-13.431-30-30
	s13.432-30,30-30S1248.871,785.431,1248.871,802"/>
<path opacity="0.15" fill="#919191" enable-background="new    " d="M427,520c0,16.569-13.431,30-30,30s-30-13.431-30-30
	s13.431-30,30-30S427,503.431,427,520"/>
<path opacity="0.15" fill="#AFAFAF" enable-background="new    " d="M397,241c0,40.869-33.131,74-74,74s-74-33.131-74-74
	s33.131-74,74-74S397,200.131,397,241"/>
<path opacity="0.15" fill="#CCCCCC" enable-background="new    " d="M334.675,308.16c-47.587,0-86.302-38.131-86.302-85
	c0-46.869,38.715-85,86.302-85s86.302,38.131,86.302,85C420.977,270.029,382.263,308.16,334.675,308.16z M334.675,140.16
	c-46.484,0-84.302,37.234-84.302,83c0,45.766,37.817,83,84.302,83c46.485,0,84.302-37.234,84.302-83
	C418.977,177.394,381.16,140.16,334.675,140.16z"/>
<path opacity="0.15" fill="#CCCCCC" enable-background="new    " d="M419.979,528.685c-21.653,0-39.27-17.354-39.27-38.685
	s17.616-38.685,39.27-38.685c21.652,0,39.269,17.354,39.269,38.685S441.63,528.685,419.979,528.685z M419.979,453.315
	c-20.551,0-37.27,16.457-37.27,36.685s16.719,36.685,37.27,36.685c20.55,0,37.269-16.457,37.269-36.685
	S440.528,453.315,419.979,453.315z"/>
<path opacity="0.15" fill="#CCCCCC" enable-background="new    " d="M399.282,530.134c-6.358,0-12.441-1.884-17.59-5.448
	c-14.637-10.131-17.761-31.063-6.964-46.658c6.656-9.617,17.323-15.359,28.531-15.359c6.358,0,12.441,1.884,17.59,5.448
	c7.101,4.915,11.731,12.481,13.04,21.309c1.306,8.802-0.853,17.805-6.075,25.351C421.157,524.392,410.491,530.134,399.282,530.134z
	 M403.261,464.667c-10.552,0-20.604,5.419-26.888,14.498c-10.168,14.688-7.271,34.372,6.458,43.876
	c4.813,3.332,10.501,5.093,16.451,5.093c10.552,0,20.604-5.42,26.888-14.498c4.934-7.126,6.972-15.62,5.742-23.918
	c-1.228-8.272-5.559-15.36-12.2-19.958C414.899,466.429,409.21,464.667,403.261,464.667z"/>
<path opacity="0.15" fill="#CCCCCC" enable-background="new    " d="M305.687,308.16c-41.252,0-74.813-36.373-74.813-81.08
	S264.435,146,305.687,146c41.252,0,74.814,36.372,74.814,81.08S346.939,308.16,305.687,308.16z M305.687,148
	c-40.149,0-72.813,35.475-72.813,79.08s32.664,79.08,72.813,79.08c40.15,0,72.814-35.475,72.814-79.08
	C378.5,183.475,345.836,148,305.687,148z"/>
<path opacity="0.15" fill="#AFAFAF" enable-background="new    " d="M633.001,147c0,51.915-42.085,94-94,94s-94-42.085-94-94
	s42.085-94,94-94S633.001,95.085,633.001,147"/>
<path opacity="0.15" fill="#AFAFAF" enable-background="new    " d="M1142.861,755c0,51.915-42.085,94-94,94s-94-42.085-94-94
	s42.085-94,94-94C1100.775,661,1142.861,703.085,1142.861,755"/>
<path opacity="0.15" fill="#AFAFAF" enable-background="new    " d="M1400,878.999c-9.547-3.228-19.774-4.978-30.41-4.978
	c-52.41,0-94.896,42.484-94.896,94.896c0,3.75,0.225,7.447,0.646,11.083H1400V878.999z"/>
<path opacity="0.15" fill="#919191" enable-background="new    " d="M1380.675,291c0,37.445-29.346,67.801-65.545,67.801
	c-36.2,0-65.545-30.356-65.545-67.801s29.345-67.801,65.545-67.801C1351.329,223.2,1380.675,253.556,1380.675,291"/>
<path opacity="0.15" fill="#AFAFAF" enable-background="new    " d="M1178.855,463c0,40.869-33.131,74-74,74
	c-40.868,0-74-33.131-74-74s33.132-74,74-74C1145.725,389,1178.855,422.131,1178.855,463"/>
<path opacity="0.15" fill="#919191" enable-background="new    " d="M332,772c0,40.869-33.131,74-74,74s-74-33.131-74-74
	s33.131-74,74-74S332,731.131,332,772"/>
<path opacity="0.15" fill="#AFAFAF" enable-background="new    " d="M1336.871,103c0,40.869-33.131,74-74,74s-74-33.131-74-74
	s33.131-74,74-74S1336.871,62.131,1336.871,103"/>
<path opacity="0.15" fill="#CCCCCC" enable-background="new    " d="M1309.127,937.913c-42.813,0-77.643-26.467-77.643-59
	s34.83-59,77.643-59s77.642,26.467,77.642,59S1351.938,937.913,1309.127,937.913z M1309.127,821.913
	c-41.709,0-75.643,25.57-75.643,57s33.934,57,75.643,57s75.642-25.57,75.642-57S1350.836,821.913,1309.127,821.913z"/>
<path opacity="0.15" fill="#CCCCCC" enable-background="new    " d="M1300.65,961.913c-42.813,0-77.644-26.467-77.644-59
	s34.83-59,77.644-59c42.812,0,77.642,26.467,77.642,59S1343.462,961.913,1300.65,961.913z M1300.65,845.913
	c-41.709,0-75.644,25.57-75.644,57s33.935,57,75.644,57s75.642-25.57,75.642-57S1342.359,845.913,1300.65,845.913z"/>
<path opacity="0.15" fill="#CCCCCC" enable-background="new    " d="M561.447,206.458c-39.937,0-72.428-34.645-72.428-77.229
	S521.511,52,561.447,52s72.428,34.645,72.428,77.229S601.384,206.458,561.447,206.458z M561.447,54
	c-38.833,0-70.428,33.748-70.428,75.229s31.594,75.229,70.428,75.229s70.428-33.748,70.428-75.229S600.281,54,561.447,54z"/>
<path opacity="0.15" fill="#CCCCCC" enable-background="new    " d="M553.547,238c-39.936,0-72.427-34.645-72.427-77.229
	s32.491-77.229,72.427-77.229c39.938,0,72.428,34.645,72.428,77.229S593.484,238,553.547,238z M553.547,85.542
	c-38.833,0-70.427,33.748-70.427,75.229S514.713,236,553.547,236s70.428-33.748,70.428-75.229S592.381,85.542,553.547,85.542z"/>
<path opacity="0.15" fill="#919191" enable-background="new    " d="M857,859.051c0,40.869-33.131,74-74,74s-74-33.131-74-74
	s33.131-74,74-74S857,818.182,857,859.051"/>
<path opacity="0.15" fill="#AFAFAF" enable-background="new    " d="M239,463c0,30.376-24.624,55-55,55s-55-24.624-55-55
	s24.624-55,55-55S239,432.624,239,463"/>
<path opacity="0.15" fill="#AFAFAF" enable-background="new    " d="M169.499,892.967c0,30.376-24.624,55-55,55s-55-24.624-55-55
	s24.624-55,55-55S169.499,862.591,169.499,892.967"/>
<path opacity="0.15" fill="#AFAFAF" enable-background="new    " d="M1400,464.931c-9.457-3.196-19.587-4.931-30.123-4.931
	c-51.915,0-94,42.085-94,94s42.085,94,94,94c10.536,0,20.666-1.733,30.123-4.932V464.931z"/>
<path opacity="0.15" fill="#AFAFAF" enable-background="new    " d="M545.945,980C556.688,964.72,563,946.098,563,926
	c0-51.915-42.086-94-94-94c-51.915,0-94,42.085-94,94c0,20.098,6.311,38.72,17.054,54H545.945z"/>
<path opacity="0.15" fill="#AFAFAF" enable-background="new    " d="M67,177c-26.231,0-49.949,10.749-67,28.077v131.846
	C17.051,354.251,40.769,365,67,365c51.915,0,94-42.085,94-94S118.915,177,67,177"/>
<path opacity="0.15" fill="#919191" enable-background="new    " d="M871.821,0c26.329,43.739,74.263,73,129.034,73
	c54.772,0,102.707-29.261,129.035-73H871.821z"/>
<path opacity="0.15" fill="#CCCCCC" enable-background="new    " d="M1309.261,359.801c-33.349,0-60.479-27.628-60.479-61.588
	s27.132-61.588,60.479-61.588c33.349,0,60.48,27.628,60.48,61.588S1342.609,359.801,1309.261,359.801z M1309.261,238.625
	c-32.246,0-58.479,26.731-58.479,59.588s26.233,59.588,58.479,59.588s58.48-26.731,58.48-59.588S1341.507,238.625,1309.261,238.625z
	"/>
<path opacity="0.15" fill="#CCCCCC" enable-background="new    " d="M1289.048,359.801c-28.932,0-52.47-26.359-52.47-58.76
	s23.538-58.76,52.47-58.76c28.933,0,52.47,26.359,52.47,58.76S1317.979,359.801,1289.048,359.801z M1289.048,244.281
	c-27.829,0-50.47,25.462-50.47,56.76s22.641,56.76,50.47,56.76s50.47-25.462,50.47-56.76S1316.877,244.281,1289.048,244.281z"/>
<path opacity="0.15" fill="#919191" enable-background="new    " d="M904.164,648.056c-37.143-4.755-63.524-37.718-58.928-73.625
	c4.597-35.905,38.434-61.158,75.576-56.403c37.142,4.755,63.523,37.719,58.928,73.625
	C975.143,627.558,941.307,652.811,904.164,648.056"/>
<path opacity="0.15" fill="#CCCCCC" enable-background="new    " d="M906.438,636.81c-2.668,0-5.372-0.174-8.038-0.515
	c-33.686-4.313-57.645-34.732-53.408-67.813c3.845-30.034,29.953-52.685,60.73-52.685c2.668,0,5.373,0.174,8.039,0.515
	c16.313,2.09,30.854,10.29,40.94,23.095c10.092,12.81,14.52,28.689,12.468,44.718C963.322,614.16,937.214,636.81,906.438,636.81z
	 M905.722,517.799c-29.773,0-55.029,21.898-58.747,50.938c-4.096,31.984,19.087,61.4,51.679,65.573
	c2.582,0.331,5.2,0.499,7.784,0.499c29.772,0,55.028-21.898,58.747-50.938c1.983-15.49-2.298-30.842-12.055-43.226
	c-9.761-12.391-23.833-20.326-39.623-22.349C910.925,517.967,908.305,517.799,905.722,517.799z"/>
<path opacity="0.15" fill="#CCCCCC" enable-background="new    " d="M907.591,608.479c-2.789,0-5.62-0.182-8.413-0.538
	c-32.138-4.115-55.294-30.812-51.621-59.509c3.294-25.723,27.6-45.121,56.535-45.121c2.789,0,5.62,0.183,8.413,0.539
	c15.547,1.99,29.479,9.264,39.226,20.477c9.775,11.246,14.179,25.107,12.396,39.031
	C960.833,589.081,936.528,608.479,907.591,608.479z M904.092,505.313c-27.933,0-51.385,18.646-54.551,43.375
	c-3.534,27.604,18.848,53.295,49.891,57.27c2.709,0.347,5.455,0.523,8.159,0.523c27.935,0,51.386-18.647,54.551-43.376
	c1.71-13.351-2.523-26.655-11.921-37.466c-9.426-10.843-22.91-17.876-37.97-19.804C909.542,505.488,906.796,505.313,904.092,505.313
	z"/>
<path opacity="0.15" fill="#CCCCCC" enable-background="new    " d="M288.342,840c-48.292,0-87.58-43.29-87.58-96.5
	s39.288-96.5,87.58-96.5s87.58,43.29,87.58,96.5S336.634,840,288.342,840z M288.342,649c-47.189,0-85.58,42.393-85.58,94.5
	s38.391,94.5,85.58,94.5c47.189,0,85.58-42.393,85.58-94.5S335.531,649,288.342,649z"/>
<path opacity="0.15" fill="#CCCCCC" enable-background="new    " d="M258.919,840c-41.862,0-75.92-41.29-75.92-92.043
	s34.058-92.043,75.92-92.043c41.862,0,75.919,41.29,75.919,92.043S300.781,840,258.919,840z M258.919,657.914
	c-40.76,0-73.92,40.394-73.92,90.043S218.16,838,258.919,838c40.759,0,73.919-40.394,73.919-90.043S299.679,657.914,258.919,657.914
	z"/>
<path opacity="0.25" fill="#CCCCCC" enable-background="new    " d="M201.761,540.408c-38.019,0-68.949-36.071-68.949-80.408
	s30.931-80.408,68.949-80.408c38.019,0,68.95,36.071,68.95,80.408S239.78,540.408,201.761,540.408z M201.761,381.592
	c-36.916,0-66.949,35.174-66.949,78.408s30.033,78.408,66.949,78.408c36.916,0,66.95-35.174,66.95-78.408
	S238.677,381.592,201.761,381.592z"/>
<path opacity="0.15" fill="#CCCCCC" enable-background="new    " d="M201.333,540.408c-32.973,0-59.798-34.408-59.798-76.702
	s26.825-76.702,59.798-76.702s59.798,34.408,59.798,76.702S234.306,540.408,201.333,540.408z M201.333,389.004
	c-31.87,0-57.798,33.511-57.798,74.702c0,41.19,25.928,74.702,57.798,74.702s57.798-33.512,57.798-74.702
	C259.131,422.515,233.203,389.004,201.333,389.004z"/>
<path opacity="0.15" fill="#CCCCCC" enable-background="new    " d="M485.632,976.142c-11.968,0-23.662-2.441-34.757-7.259
	c-21.143-9.177-37.502-25.914-46.063-47.128c-8.563-21.219-8.3-44.376,0.741-65.206c13.412-30.898,44.129-50.863,78.254-50.863
	c11.969,0,23.662,2.44,34.757,7.258c21.143,9.177,37.502,25.914,46.063,47.128c8.563,21.219,8.299,44.376-0.742,65.206
	C550.474,956.176,519.757,976.142,485.632,976.142z M483.809,807.685c-33.328,0-63.324,19.493-76.419,49.661
	c-8.827,20.334-9.083,42.942-0.722,63.661c8.363,20.725,24.346,37.075,45.004,46.042c10.842,4.706,22.27,7.093,33.961,7.093
	c33.328,0,63.324-19.492,76.419-49.661c8.827-20.334,9.083-42.942,0.723-63.661c-8.363-20.725-24.347-37.075-45.005-46.042
	C506.926,810.07,495.5,807.685,483.809,807.685z"/>
<path opacity="0.15" fill="#CCCCCC" enable-background="new    " d="M452.091,963.107c-9.639,0-18.995-1.939-27.808-5.767
	c-37.841-16.426-54.145-63.153-36.343-104.165c13.277-30.587,41.973-50.351,73.104-50.351c9.639,0,18.995,1.938,27.808,5.766
	c37.842,16.425,54.146,63.152,36.344,104.164C511.918,943.343,483.224,963.107,452.091,963.107z M461.044,804.826
	c-30.334,0-58.309,19.291-71.269,49.146c-17.362,39.999-1.524,85.547,35.305,101.534c8.56,3.716,17.648,5.601,27.011,5.601
	c30.335,0,58.311-19.293,71.27-49.148c17.361-39.999,1.524-85.547-35.305-101.533C479.496,806.71,470.408,804.826,461.044,804.826z"
	/>
<path opacity="0.15" fill="#CCCCCC" enable-background="new    " d="M1305.8,662.315c-11.968,0-23.662-2.441-34.757-7.259
	c-43.65-18.946-63.982-69.341-45.32-112.335c13.412-30.898,44.13-50.863,78.255-50.863c11.968,0,23.661,2.44,34.757,7.258
	c21.143,9.177,37.502,25.914,46.063,47.128c8.563,21.219,8.301,44.376-0.742,65.206
	C1370.642,642.35,1339.925,662.315,1305.8,662.315z M1303.977,493.858c-33.327,0-63.324,19.492-76.42,49.66
	c-18.223,41.981,1.644,91.195,44.283,109.704c10.842,4.706,22.268,7.092,33.96,7.092c33.328,0,63.325-19.492,76.42-49.661
	c8.826-20.334,9.082-42.942,0.723-63.661c-8.363-20.725-24.347-37.075-45.005-46.042
	C1327.095,496.244,1315.669,493.858,1303.977,493.858z"/>
<path opacity="0.15" fill="#CCCCCC" enable-background="new    " d="M1272.26,649.281c-9.639,0-18.995-1.939-27.809-5.767
	c-37.841-16.426-54.145-63.153-36.342-104.165c13.276-30.587,41.972-50.351,73.104-50.351c9.639,0,18.994,1.939,27.809,5.766
	c18.345,7.964,32.226,23.193,39.084,42.887c6.851,19.663,5.877,41.426-2.741,61.277
	C1332.087,629.517,1303.392,649.281,1272.26,649.281z M1281.213,491c-30.334,0-58.31,19.291-71.27,49.146
	c-17.362,40-1.524,85.548,35.305,101.534c8.561,3.716,17.648,5.601,27.012,5.601c30.335,0,58.311-19.292,71.271-49.148
	c8.417-19.391,9.371-40.637,2.688-59.824c-6.673-19.157-20.166-33.971-37.993-41.709C1299.663,492.884,1290.575,491,1281.213,491z"
	/>
<path opacity="0.15" fill="#CCCCCC" enable-background="new    " d="M1053.943,846.305c-13.644,0-27.043-2.813-39.829-8.363
	c-47.384-20.567-70.509-72.834-51.552-116.513c13.258-30.539,44.851-50.271,80.487-50.271c13.644,0,27.043,2.813,39.829,8.364
	c47.384,20.566,70.51,72.834,51.551,116.512C1121.174,826.571,1089.581,846.305,1053.943,846.305z M1043.051,673.156
	c-34.841,0-65.714,19.261-78.652,49.068c-18.52,42.665,4.142,93.752,50.514,113.881c12.533,5.44,25.665,8.198,39.032,8.198
	c34.841,0,65.714-19.261,78.652-49.068c18.52-42.665-4.142-93.752-50.514-113.882
	C1069.55,675.914,1056.418,673.156,1043.051,673.156z"/>
<path opacity="0.15" fill="#CCCCCC" enable-background="new    " d="M1017.132,832.047c-11.011,0-21.747-2.236-31.909-6.646
	c-19.896-8.638-35.19-24.617-43.063-44.998c-7.871-20.375-7.382-42.71,1.378-62.891c13.149-30.296,42.736-49.872,75.371-49.872
	c11.012,0,21.747,2.236,31.909,6.647c41.069,17.828,59.771,66.227,41.686,107.888
	C1079.354,812.471,1049.768,832.047,1017.132,832.047z M1018.908,669.64c-31.838,0-60.703,19.104-73.537,48.669
	c-8.549,19.694-9.026,41.49-1.347,61.372c7.679,19.877,22.593,35.464,41.995,43.886c9.908,4.301,20.377,6.48,31.111,6.48
	c31.839,0,60.704-19.104,73.537-48.669c17.646-40.648-0.59-87.867-40.647-105.257C1040.111,671.82,1029.645,669.64,1018.908,669.64z
	"/>
<path opacity="0.15" fill="#CCCCCC" enable-background="new    " d="M125.526,934.497c-7.019,0-13.876-1.433-20.382-4.257
	c-12.398-5.382-21.991-15.196-27.011-27.638c-5.022-12.445-4.868-26.028,0.436-38.247c7.867-18.125,25.881-29.834,45.896-29.834
	c7.018,0,13.875,1.432,20.381,4.256c12.399,5.382,21.992,15.195,27.012,27.637c5.022,12.445,4.868,26.028-0.436,38.247
	C163.555,922.785,145.54,934.497,125.526,934.497z M124.465,836.521c-19.217,0-36.512,11.237-44.061,28.631
	c-5.089,11.723-5.237,24.757-0.417,36.701c4.822,11.95,14.04,21.381,25.953,26.553c6.253,2.714,12.843,4.091,19.586,4.091
	c19.216,0,36.512-11.239,44.062-28.633c5.089-11.724,5.237-24.757,0.417-36.702c-4.823-11.95-14.04-21.379-25.954-26.551
	C137.797,837.896,131.208,836.521,124.465,836.521z"/>
<path opacity="0.15" fill="#CCCCCC" enable-background="new    " d="M819.596,920.305c-41.987,0-76.146-33.645-76.146-75
	c0-41.354,34.159-75,76.146-75s76.146,33.646,76.146,75C895.742,886.66,861.583,920.305,819.596,920.305z M819.596,772.305
	c-40.885,0-74.146,32.748-74.146,73s33.263,73,74.146,73s74.146-32.748,74.146-73S860.48,772.305,819.596,772.305z"/>
<path opacity="0.15" fill="#AFAFAF" enable-background="new    " d="M584.696,572.454c-22.201-46.928-2.155-102.969,44.772-125.169
	c46.928-22.201,102.969-2.156,125.168,44.771c22.201,46.931,2.156,102.971-44.771,125.17
	C662.938,639.428,606.896,619.382,584.696,572.454"/>
<path opacity="0.15" fill="#CCCCCC" enable-background="new    " d="M667.85,615.088c-24.314,0-47.319-8.576-64.776-24.148
	c-17.521-15.631-27.573-36.647-28.302-59.182c-1.54-47.588,39.209-87.664,90.838-89.335c1.119-0.036,2.234-0.054,3.346-0.054
	c24.313,0,47.317,8.577,64.775,24.15c17.521,15.631,27.572,36.647,28.302,59.179c0.747,23.067-8.301,45.066-25.478,61.944
	c-17.152,16.854-40.365,26.582-65.359,27.392C670.079,615.069,668.958,615.088,667.85,615.088z M668.955,444.368
	c-1.089,0-2.184,0.018-3.282,0.053c-50.525,1.636-90.409,40.786-88.903,87.272c1.477,45.642,41.483,81.395,91.08,81.395
	c1.086,0,2.187-0.018,3.281-0.053c24.491-0.793,47.229-10.317,64.023-26.82c16.771-16.479,25.607-37.949,24.88-60.453
	C758.557,480.121,718.551,444.368,668.955,444.368z"/>
<path opacity="0.15" fill="#CCCCCC" enable-background="new    " d="M699.78,606.095c-21.146,0-41.185-8.225-56.424-23.16
	c-15.271-14.964-24.063-35.058-24.76-56.579c-0.712-21.986,7.06-42.932,21.882-58.977c14.825-16.049,34.93-25.273,56.609-25.975
	c22.167-0.715,43.19,7.563,59.061,23.117c15.27,14.965,24.063,35.059,24.759,56.58c1.469,45.395-33.741,83.504-78.49,84.95
	C701.535,606.081,700.655,606.095,699.78,606.095z M699.724,443.361c-0.854,0-1.713,0.014-2.571,0.042
	c-21.142,0.684-40.747,9.681-55.206,25.333c-14.463,15.655-22.045,36.096-21.352,57.554c1.412,43.629,36.194,77.805,79.186,77.805
	c0.854,0,1.712-0.014,2.571-0.041c43.646-1.413,77.989-38.596,76.558-82.888C777.495,477.537,742.714,443.361,699.724,443.361z"/>
<path opacity="0.15" fill="#CCCCCC" enable-background="new    " d="M837.455,427.809c-29.044,0-55.733-16.747-67.994-42.665
	c-8.568-18.111-9.462-38.526-2.516-57.484c6.943-18.952,20.893-34.179,39.274-42.875c10.425-4.932,21.498-7.432,32.912-7.432
	c29.044,0,55.733,16.747,67.994,42.664c8.568,18.111,9.462,38.526,2.517,57.484c-6.943,18.952-20.893,34.179-39.275,42.875
	C859.942,425.309,848.869,427.809,837.455,427.809z M839.133,279.353c-11.116,0-21.9,2.436-32.057,7.24
	c-17.905,8.471-31.49,23.3-38.253,41.756c-6.761,18.451-5.893,38.317,2.445,55.94c11.933,25.223,37.911,41.52,66.187,41.52
	c11.116,0,21.9-2.436,32.057-7.239c17.906-8.472,31.491-23.3,38.254-41.756c6.761-18.45,5.892-38.317-2.446-55.94
	C893.387,295.65,867.407,279.353,839.133,279.353z"/>
<path opacity="0.15" fill="#CCCCCC" enable-background="new    " d="M1039.104,120c-36.809,0-66.754-22.878-66.754-51
	s29.945-51,66.754-51s66.754,22.878,66.754,51S1075.911,120,1039.104,120z M1039.104,20c-35.705,0-64.754,21.981-64.754,49
	s29.049,49,64.754,49s64.754-21.981,64.754-49S1074.809,20,1039.104,20z"/>
<path opacity="0.15" fill="#CCCCCC" enable-background="new    " d="M1129.892,472.92c-36.809,0-66.754-28.073-66.754-62.58
	c0-34.506,29.945-62.58,66.754-62.58s66.753,28.073,66.753,62.58S1166.699,472.92,1129.892,472.92z M1129.892,349.761
	c-35.704,0-64.754,27.176-64.754,60.58c0,33.404,29.049,60.58,64.754,60.58s64.753-27.176,64.753-60.58
	C1194.645,376.937,1165.597,349.761,1129.892,349.761z"/>
<rect fill="none" width="1400" height="980"/>
</svg>
