<svg xmlns="http://www.w3.org/2000/svg" id="Layer_1" width="500" height="500" viewBox="0 0 500 500">
  <path d="M0 0v500h500V0H0zM134.4 454.9L75.9 333.8l58.6-25.1L134.4 454.9zM266.5 235.2L230 15H293v208.8L266.5 235.2zM293 240.5v154.8l-24.1-144.5L293 240.5zM252.6 241.5L230 251.1V105.9L252.6 241.5zM192.6 267L150.6 15H214v242.8L192.6 267zM214 274.5v121l-18.9-112.9L214 274.5zM178.1 273.2l-28.1 12.1 0.2-179.2L178.1 273.2zM180.7 288.8L213.3 484h-63.6l0.2-182L180.7 288.8zM230 267.9l25-10.8L292.6 484H230V267.9zM309 233.9l66-28.3V484h-66V233.9zM309 217.1V15h66v173.8L309 217.1zM16 15h118.9l-0.3 276.9 -72.1 30.9 -3.9 10.4L131.3 484H16V15zM485 484h-95V199l53.3-22.8 -6.2-14.2L390 182.2V15h95V484z"/>
</svg>
